<svg xmlns="http://www.w3.org/2000/svg" width="64" height="64" viewBox="0 0 64 64" role="img" aria-label="Intro Buzz Quiz">
  <title>Intro Buzz Quiz</title>
  <defs>
    <radialGradient id="bg" cx="19%" cy="13%" r="92%">
      <stop offset="0" stop-color="#ff4e77" stop-opacity=".38" />
      <stop offset=".46" stop-color="#21131a" />
      <stop offset="1" stop-color="#16131d" />
    </radialGradient>
    <linearGradient id="button" x1="17" x2="48" y1="16" y2="51" gradientUnits="userSpaceOnUse">
      <stop stop-color="#ff4e77" />
      <stop offset="1" stop-color="#ffb14e" />
    </linearGradient>
  </defs>
  <rect width="64" height="64" rx="15" fill="#16131d" />
  <rect width="64" height="64" rx="15" fill="url(#bg)" />
  <circle cx="50" cy="15" r="18" fill="#58b9ff" opacity=".15" />
  <circle cx="32" cy="36" r="25" fill="#09070d" opacity=".62" />
  <circle cx="32" cy="34" r="23" fill="url(#button)" />
  <circle cx="32" cy="34" r="20" fill="none" stroke="#f7f2ea" stroke-width="2" opacity=".16" />
  <path d="M18.5 29.5c4.8-6.2 13.2-8.9 21.2-6.4" fill="none" stroke="#fff" stroke-linecap="round" stroke-width="4" opacity=".28" />
  <g fill="#f7f2ea">
    <ellipse cx="28" cy="42" rx="8" ry="6.5" transform="rotate(-13 28 42)" />
    <rect x="35" y="19" width="6" height="25" rx="3" />
    <path d="M39 19.5c4.5-.8 8.3-2.2 12-4.5v7.8c-3.7 2.2-7.7 3.7-12 4.4z" />
  </g>
  <circle cx="48" cy="49" r="4.8" fill="#7dffbe" stroke="#16131d" stroke-width="2.4" />
  <rect x="1" y="1" width="62" height="62" rx="14" fill="none" stroke="#f7f2ea" stroke-width="2" opacity=".12" />
</svg>
